# xmcd
#
# Track frame offsets:
#	150
#	9083
#	25418
#	45414
#	66763
#	86086
#	107699
#	124220
#	142437
#	157637
#	172749
#	187381
#	204060
#	224494
#	242217
#	258150
#	271564
#	285013
#	298339
#	313530
#	334692
#
# Disc length: 4681 seconds
#
# Revision: 1
# Processed by: cddbd v1.5.2PL0 Copyright (c) Steve Scherf et al.
# Submitted via: audiograbber 1.83.01
#
DISCID=27124715
DTITLE=Snoop Dogg - Tha Blue Carpet Treatment (clean)
DYEAR=2006
DGENRE=Hip-Hop
TTITLE0=Intrology Feat. George Clinton
TTITLE1=Think About It
TTITLE2=Crazy Feat. Nate Dogg
TTITLE3=Vato Feat. B. Real
TTITLE4=That's That S*** Feat. R. Kelly
TTITLE5=Candy (Drippin' Like Water) Feat. E-40, MC Eiht, GoldieLoc, Daz, and Ku
TTITLE5=rput
TTITLE6=Get A Light Feat. Damian "Jr. Gong" Marley
TTITLE7=Gangbangn 101 feat. The Game
TTITLE8=Boss Life feat. Akon
TTITLE9=LAX Feat. Ice Cude
TTITLE10=10 Lil' Crips
TTITLE11=Round Here
TTITLE12=A B*** I Knew
TTITLE13=Like This feat. Western Union (Damani, Soopafly, Bad Lucc), Latoiya Wi
TTITLE13=lliams and Raul Midon
TTITLE14=Which One Of You feat. Nine Inch D
TTITLE15=I Wanna Love You with Akon
TTITLE16=Psst! feat. Jamie Foxx
TTITLE17=Beat Up On Yo Pads
TTITLE18=Don't Stop feat. War Zone (Goldie Loc, MC Eiht, and Kam) and Kurupt
TTITLE19=Imagine feat. Dr. Dre and D'Angelo
TTITLE20=Conversations feat. Stevie Wonder
EXTD=
EXTT0=
EXTT1=
EXTT2=
EXTT3=
EXTT4=
EXTT5=
EXTT6=
EXTT7=
EXTT8=
EXTT9=
EXTT10=
EXTT11=
EXTT12=
EXTT13=
EXTT14=
EXTT15=
EXTT16=
EXTT17=
EXTT18=
EXTT19=
EXTT20=
PLAYORDER=
